<svg version="1" xmlns="http://www.w3.org/2000/svg" width="341.333" height="341.333" viewBox="0 0 256.000000 256.000000"><path d="M96 18.6c-22.3 2.6-31.6 4.6-43 9.1-14 5.6-27.3 15.8-32.7 25-5.2 8.9-5.3 10.2-5.3 74.8 0 64.8 0 64.8 5.4 73.9 7.9 13.4 26.8 24.9 49.6 30.2 11.4 2.6 31.9 4.6 41 3.9 11.9-1 33.1-5 41.7-7.9 10.9-3.7 21-9.4 27.6-15.5 6.6-6.1 9.5-10.3 12.1-17.2l1.8-4.6 6.5-.6c13-1 27.3-10.8 33.4-22.9 5-9.8 5.9-16 5.9-39.8 0-23.4-1-29.9-5.6-39.5-5.9-11.9-20.7-22.2-33.7-23.2l-6.5-.6-1.8-4.6c-5.8-15.5-21.5-27.4-44.9-34-17-4.9-40.3-7.8-51.5-6.5zm29.5 16.5c17.9 2.3 34.9 9 44.4 17.5 7.1 6.4 9.2 10.9 9.9 21.1.2 4.6.6 8.3.7 8.3.1 0 2.3-.7 4.9-1.6 3.1-1.1 7-1.5 11.4-1.2 10.8.6 19.4 6.1 24.3 15.6 2.4 4.6 2.4 5.1 2.4 32.2s0 27.6-2.4 32.2c-7.1 13.9-24 19.6-39.2 13.4-1.4-.6-1.7.5-2.1 7.6-.7 10.2-2.8 14.8-9.7 21-9.4 8.5-25.8 15.2-43.6 17.9-10.4 1.6-33.8 1.5-44-.1-22.8-3.5-43.8-14.5-50.2-26.1-1.7-3.2-1.8-7.3-2.1-63.8-.3-69.3-.6-66.4 8.1-75.1C54 38.3 89.8 30.5 125.5 35.1z"/><path d="M90 56.5c-.8.2-4.9.9-9.1 1.5-4.2.7-8.3 1.6-9 2-.9.6.1 2.3 3.8 6.3 5.8 6.4 8.3 13.1 6.5 17.2-1.2 2.7-4.3 3.3-6 1.2-.5-.6-1.5-3.1-2.2-5.5-1-3.8-9.5-14.9-12.2-16.1-1.8-.7-13.4 5.9-17.5 10-2.4 2.3-4.3 4.6-4.3 5 0 2.2 6.7 8 12.7 11.2 14.1 7.3 30.8 10.8 52.3 10.8 16.2 0 27.9-1.7 40.2-5.8 9.4-3.1 19.3-8.8 22.6-13.1l2.3-3-3.5-4c-3-3.3-15.7-11.2-18.1-11.2-.4 0 1.1 2 3.3 4.5 4.7 5.4 7 12.3 5.4 16-2 4.4-6.9 2.9-7.8-2.3-.9-4.9-1.6-6.2-7.4-12.8-2.7-3.1-5.2-6.4-5.5-7.4-.7-2.1-8.2-3.8-21.2-4.7-6.5-.4-9.3-.3-9.3.5 0 .6 2.3 3.7 5.1 6.9 8.3 9.4 11.2 18.8 6.7 21.7-2.7 1.7-4.9-.3-6.3-5.7-.8-3.2-2.7-6.2-5.9-9.7-2.6-2.8-5.6-7.1-6.7-9.5-2-4.6-3.3-5.1-8.9-4zM188 94.8c-1.9.9-4.5 3.2-5.7 5.1-2.2 3.3-2.3 4.1-2.3 27.1s.1 23.8 2.3 27.1c6.2 9.4 19.9 9 25.4-.7 2.2-3.7 2.3-5 2.3-26.3 0-20.9-.1-22.6-2.1-26.1-4-7.1-12.7-9.9-19.9-6.2z"/></svg>