<?xml version="1.0" standalone="no"?>
<!DOCTYPE svg PUBLIC "-//W3C//DTD SVG 20010904//EN"
 "http://www.w3.org/TR/2001/REC-SVG-20010904/DTD/svg10.dtd">
<svg version="1.0" xmlns="http://www.w3.org/2000/svg"
 width="260.000000pt" height="260.000000pt" viewBox="0 0 260.000000 260.000000"
 preserveAspectRatio="xMidYMid meet">
<metadata>
Created by potrace 1.11, written by Peter Selinger 2001-2013
</metadata>
<g transform="translate(0.000000,260.000000) scale(0.100000,-0.100000)"
fill="#000000" stroke="none">
<path d="M825 2395 c-130 -20 -256 -59 -365 -113 -124 -60 -243 -174 -281
-267 l-24 -60 -3 -610 c-4 -641 -2 -672 41 -765 26 -57 145 -175 220 -219 81
-48 213 -96 337 -122 153 -33 446 -34 608 -1 234 47 375 113 493 231 60 61 80
88 98 137 l22 61 64 5 c167 14 325 145 378 313 20 65 22 90 22 325 0 235 -2
260 -22 325 -53 168 -211 299 -378 312 l-63 6 -18 46 c-26 68 -55 110 -120
172 -102 96 -249 162 -466 210 -123 27 -413 34 -543 14z m530 -163 c226 -49
404 -155 452 -270 8 -19 17 -71 20 -117 l6 -83 45 20 c97 43 246 7 324 -80 69
-77 78 -121 78 -392 0 -273 -9 -317 -81 -395 -77 -83 -209 -117 -315 -81 -26
9 -48 16 -49 16 -1 0 -5 -37 -8 -81 -8 -101 -32 -154 -97 -212 -85 -77 -218
-136 -392 -174 -118 -25 -428 -25 -546 0 -234 51 -407 149 -461 260 -21 42
-21 56 -21 665 0 506 3 629 14 656 55 132 280 248 556 286 103 14 371 4 475
-18z"/>
<path d="M832 2014 c-123 -21 -123 -21 -63 -89 84 -95 96 -195 25 -195 -19 0
-25 10 -39 55 -11 40 -31 72 -67 113 -29 31 -56 59 -60 61 -5 2 -38 -11 -73
-28 -68 -34 -145 -101 -145 -127 0 -26 66 -82 139 -118 140 -71 311 -106 511
-106 203 0 361 31 505 99 83 39 155 97 155 124 0 34 -126 130 -200 152 -22 7
-20 3 17 -38 62 -67 82 -155 41 -181 -27 -17 -51 4 -61 51 -5 28 -25 60 -63
104 -31 35 -61 74 -66 85 -7 16 -26 25 -67 33 -80 17 -241 26 -241 14 0 -10
26 -46 94 -130 59 -73 59 -163 0 -163 -19 0 -25 9 -39 55 -11 39 -31 72 -70
116 -29 33 -59 76 -65 95 -10 31 -15 34 -48 33 -20 -1 -75 -7 -120 -15z"/>
<path d="M1904 1631 c-17 -10 -40 -31 -52 -46 -21 -27 -22 -37 -22 -278 l0
-250 45 -44 c42 -40 50 -43 98 -43 62 0 108 24 137 72 18 30 20 51 20 268 0
217 -2 238 -20 268 -42 68 -139 94 -206 53z"/>
</g>
</svg>
